<?xml version="1.0" encoding="UTF-8" standalone="no"?>
<!-- Created with Inkscape (http://www.inkscape.org/) -->

<svg
   width="209.55872mm"
   height="203.23581mm"
   viewBox="0 0 209.55872 203.23581"
   version="1.1"
   id="svg5"
   xmlns:xlink="http://www.w3.org/1999/xlink"
   xmlns="http://www.w3.org/2000/svg"
   xmlns:svg="http://www.w3.org/2000/svg">
  <defs
     id="defs2" />
  <g
     id="layer1"
     transform="translate(-0.00186586,0.14976311)">
    <image
       width="209.55872"
       height="203.23581"
       preserveAspectRatio="none"
       xlink:href="../Documents/repos/scad/frigate/reference/indy_frames.jpg"
       id="image924"
       x="0.0018658631"
       y="-0.14976311" />
    <g
       id="g16415">
      <path
         style="fill:none;stroke:#000000;stroke-width:0.264583px;stroke-linecap:butt;stroke-linejoin:miter;stroke-opacity:1"
         d="m 103.79095,190.76239 29.42415,-4.36765 19.88429,-5.05728 21.95317,-19.76935 13.90751,-24.94156 4.48258,-27.92995 -0.22962,-4.41662 -0.31502,-4.47504 -16.17356,-39.830157 -4.08559,-10.931049 -4.09693,-15.166685"
         id="path1060" />
      <path
         style="fill:none;stroke:#000000;stroke-width:0.264583px;stroke-linecap:butt;stroke-linejoin:miter;stroke-opacity:1"
         d="m 167.61683,33.609268 3.96353,15.305502 3.40962,10.30242 16.32712,39.814747 0.68883,4.320043 0.22987,4.9998 -4.48258,27.98743 -13.90751,24.02205 -23.33243,18.10275 -19.83337,6.70818 -26.88896,5.5902 25.11397,-6.89629 19.3096,-7.06869 23.16002,-18.73491 14.13739,-23.04508 4.50737,-29.34909 0.16637,-3.29118 -0.12372,-4.105318 -17.08796,-39.783677 -3.25628,-10.448104 -2.84205,-14.828349"
         id="path1152" />
      <path
         style="fill:none;stroke:#000000;stroke-width:0.264583px;stroke-linecap:butt;stroke-linejoin:miter;stroke-opacity:1"
         d="m 103.79095,190.76239 23.16002,-8.79277 18.79238,-7.75832 23.21749,-17.70046 15.28677,-22.18305 4.92472,-28.77144 -0.0398,-3.7083 -0.32903,-4.244816 -16.9772,-39.595015 -2.51247,-10.077227 -3.07006,-15.091828"
         id="path1154" />
      <path
         style="fill:none;stroke:#000000;stroke-width:0.264583px;stroke-linecap:butt;stroke-linejoin:miter;stroke-opacity:1"
         d="m 165.61227,32.507033 c 0.98786,4.957533 2.0565,10.178808 3.09084,15.136111 0.71123,3.408766 1.45489,6.817372 2.26047,10.225671 l 16.63934,39.210867 0.31576,4.299978 -0.0666,3.60964 -4.69935,28.19121 -16.95695,20.93823 -23.48723,17.1658 -17.69432,9.03779 c -7.15627,3.31345 -14.17941,6.89699 -21.22323,10.44006 l 17.93035,-12.88309 16.64012,-10.63429 23.41693,-16.1227 17.91153,-19.89243 7.30205,-26.53562 -0.18114,-3.8992 -0.74745,-4.59753 -15.86029,-38.631173 c -0.74066,-3.466838 -1.40558,-6.934051 -2.03141,-10.401458 -0.87573,-4.851979 -2.62679,-10.464162 -3.44983,-15.316402"
         id="path1303" />
      <path
         style="fill:none;stroke:#000000;stroke-width:0.264583px;stroke-linecap:butt;stroke-linejoin:miter;stroke-opacity:1"
         d="m 162.8749,31.287574 4.68115,15.694255 2.02584,10.405333 12.9203,36.390916 0.21261,5.527887 -0.34988,4.386865 -7.85948,24.5006 -19.04521,19.15455 -21.30523,16.37846 -14.97173,11.10331 -15.39232,15.93264 10.75395,-18.88981 14.10142,-13.94302 18.93588,-15.18006 18.84107,-18.74373 8.86889,-23.62753 0.026,-4.597454 -0.0857,-5.17278 -9.4586,-34.765276 -2.12407,-10.586469 -3.08769,-15.002776"
         id="path1338" />
      <path
         style="fill:none;stroke:#000000;stroke-width:0.264583px;stroke-linecap:butt;stroke-linejoin:miter;stroke-opacity:1"
         d="m 157.81552,29.267781 2.21092,14.724459 -0.54271,9.749909 3.87816,32.856921 0.3003,4.390533 -0.35722,5.687219 -8.24748,21.247418 -17.49507,18.10674 -14.86011,16.75234 -11.96885,13.4929 -6.94251,24.48617 2.43901,-32.96418 6.24646,-12.31849 12.28814,-17.16085 14.08439,-18.61366 6.61194,-19.468604 0.19745,-6.177492 0.18274,-3.573336 5.03699,-28.417728 2.32431,-9.964681 1.54916,-13.908231"
         id="path1340" />
    </g>
    <g
       id="g30611">
      <path
         style="fill:none;stroke:#000000;stroke-width:0.264583px;stroke-linecap:butt;stroke-linejoin:miter;stroke-opacity:1"
         d="m 56.856601,6.5107843 -5.3428,25.0024597 -5.329947,22.726838 -6.003075,26.786776 1.33653,5.570722 1.045635,4.358257 18.611818,14.409483 20.910391,10.35872 13.694172,21.69644 2.15264,28.73972 1.285681,24.43342 L 96.725688,166.88214 93.488099,140.17089 76.534774,119.91899 55.135832,109.72005 39.625211,93.052391 39.1103,88.103216 38.321376,82.281425 44.393112,54.717618 50.04723,32.15516 55.716955,6.8294469"
         id="path1793" />
      <path
         style="fill:none;stroke:#000000;stroke-width:0.264583px;stroke-linecap:butt;stroke-linejoin:miter;stroke-opacity:1"
         d="m 53.804055,8.1999039 -6.041628,25.5678471 -6.138079,21.909526 -8.603712,30.013039 0.314598,5.71912 0.258391,4.69733 13.541726,19.907534 21.226301,11.986 18.993325,17.39313 7.232763,23.30639 4.629906,21.8938 L 91.896598,170.81496 82.941943,150.54515 60.507268,133.98203 40.471323,120.07608 28.638697,98.630423 28.613989,94.361316 28.580886,88.515384 38.770064,56.695357 44.676991,35.307889 51.786174,9.567356"
         id="path1795" />
      <path
         style="fill:none;stroke:#000000;stroke-width:0.264583px;stroke-linecap:butt;stroke-linejoin:miter;stroke-opacity:1"
         d="m 48.844705,11.740755 -6.80105,24.940785 -5.71871,20.971632 -11.616883,33.523511 -0.03644,5.561002 -0.03396,4.064595 9.585133,23.48183 20.375753,14.77535 23.450113,16.74797 11.534665,17.34524 9.634311,17.44095 L 86.955402,175.32937 72.883866,159.22007 48.397916,143.64282 29.432141,127.64529 22.028942,102.07543 21.670974,98.537771 21.253147,93.335869 32.6129,59.12778 38.670895,38.445758 45.737789,14.319349"
         id="path1797" />
      <path
         style="fill:none;stroke:#000000;stroke-width:0.264583px;stroke-linecap:butt;stroke-linejoin:miter;stroke-opacity:1"
         d="m 42.960608,16.250097 -6.522034,23.299996 -5.632457,20.121976 -12.415212,35.233151 0.229569,5.41584 0.229434,4.26462 7.365276,25.65554 18.569178,17.36325 24.596053,15.6183 16.072224,14.0423 13.765007,13.32855 L 83.514253,178.76842 65.358819,166.75235 41.106028,150.717 23.656608,131.62692 16.943969,105.82958 16.762406,101.44722 16.569793,95.915941 29.150264,60.164108 34.943683,40.163175 39.88603,23.100444"
         id="path1799" />
      <path
         style="fill:none;stroke:#000000;stroke-width:0.264583px;stroke-linecap:butt;stroke-linejoin:miter;stroke-opacity:1"
         d="m 38.728213,24.284691 -4.667896,16.495553 -5.683741,19.818717 -13.012452,35.724393 0.0945,5.860716 0.07136,4.42555 6.180897,26.34204 16.680982,20.39859 24.521337,16.98862 19.399661,9.65933 16.904783,10.59542 -18.870368,-8.4287 -21.128329,-8.19278 -23.738813,-17.76287 -15.633289,-22.19182 -5.254148,-27.03839 -0.151495,-4.11727 -0.09916,-5.47188 13.162328,-36.609715 5.622646,-19.40507 4.307678,-15.702363"
         id="path1801" />
      <path
         style="fill:none;stroke:#000000;stroke-width:0.264583px;stroke-linecap:butt;stroke-linejoin:miter;stroke-opacity:1"
         d="m 36.454715,26.508145 -4.465198,15.44444 -5.372916,18.92495 -13.367112,37.452438 0.03741,5.235447 0.174428,4.71963 5.08939,26.5922 15.068205,22.96672 23.577039,18.50006 21.686736,7.12159 20.334955,7.128 -21.084361,-6.38118 -22.998799,-6.36399 -22.965713,-18.73639 -14.943476,-23.48861 -4.730043,-26.75749 -0.08787,-4.77056 -0.07543,-4.998485 12.265241,-37.934926 6.311209,-18.652046 5.059605,-15.640202"
         id="path1947" />
      <path
         style="fill:none;stroke:#000000;stroke-width:0.264583px;stroke-linecap:butt;stroke-linejoin:miter;stroke-opacity:1"
         d="m 99.217646,190.59362 -21.91472,-5.49726 -23.769013,-5.5159 -23.427735,-19.19385 -13.795816,-23.83912 -5.018524,-26.98593 -0.07052,-4.80764 -0.01091,-4.841597 12.945894,-38.63144 6.058457,-18.255677 5.279574,-15.859819"
         id="path1949" />
      <path
         style="fill:none;stroke:#000000;stroke-width:0.264583px;stroke-linecap:butt;stroke-linejoin:miter;stroke-opacity:1"
         d="M 99.217646,190.59362 76.267293,186.39474 51.131933,182.13962 27.948347,161.56811 14.335605,136.62655 9.8703668,110.28884 9.6636638,105.71914 9.6012792,99.689878 23.403818,61.379408 29.388009,43.535882 32.776301,33.877049"
         id="path1951" />
    </g>
    <circle
       style="font-variation-settings:'wght' 700;fill:#228000;stroke-width:0.79375"
       id="path16755"
       cx="101.64681"
       cy="190.91103"
       r="0.89862442" />
  </g>
</svg>
