<?xml version="1.0" encoding="UTF-8"?>
<svg version="1.1" viewBox="0 0 100 125" xml:space="preserve" xmlns="http://www.w3.org/2000/svg"><path d="M65.2 77.6c.5-.8 0-1.7-.4-2.4l-1.5-2.1 4.3-1.8q-1.6-1.3-3-1.4-1.8-.5-3.5-1.2l-15.4-7.6a54 54 0 0 1-9.8-6.1l-6.1-5a84 84 0 0 1-12-12.1 162 162 0 0 1-9.5-13.5l-2-2.8Q6 21 5 21.2v1.5q.6 2.8 1.4 5.4a68 68 0 0 0 22.8 31.2q3.4 2.6 7 5A97 97 0 0 0 63 77.8c.7.2 1.6.6 2.2-.2"/><path d="m74.2 71.6c1.6667 1 3 0.73333 4-0.8 1-1.5 1-3.6-0.3-4.6-2.2416-1.7972-5.533-1.34-7.2 1-1.6 2.2-2.4 5-4.7 6.5 0.66667 2.8667 0.43333 5.6-0.7 8.2l-0.6-0.5c-1.3333-0.93333-2.3333-0.7-3 0.7l-0.7 2.9c-0.13333 1.2 0.36667 1.9667 1.5 2.3 2.8 1 5 0.7 6.3-2 0.6-1.2 1-2.5 1.2-3.9 0.66667-3.4667 1.9333-6.7667 3.8-9.9z"/><path d="m35.7 81.1-1 0.8c-1.2168-2.5943-1.4652-5.5385-0.7-8.3-1.7-1-2.5-2.6-3.3-4.1l-1.4-2.3c-1.3802-1.9963-3.9946-2.7131-6.2-1.7-0.73333 0.4-1.3333 0.96667-1.8 1.7-0.7 1.1 0 3.4 1 4.3 1.2 1 2 1 3.9-0.1 1.4 2.7 2.8 5.3 3.3 8.2 0.26667 1.8 0.73333 3.5333 1.4 5.2 1.3 3 3.1 3.3 6.1 2.6 1.0667-0.2 1.7333-0.86667 2-2 0.08015-1.3095-0.27112-2.6092-1-3.7-0.66667-0.86667-1.4333-1.0667-2.3-0.6"/><path d="m94.4 21-1.5 1.5-2.8 4.3c-7.8934 12.958-18.717 23.885-31.6 31.9l-6 3.4-0.8 0.6 0.7 0.5 7.4 3.1c0.6 0.2 1.0667 0.13333 1.4-0.2l3.4-2.4c4.4667-2.8 8.5667-6.0667 12.3-9.8 6.2667-6.0667 11.2-13.1 14.8-21.1 1.5333-3.2667 2.6333-6.6667 3.3-10.2 0-0.6 0.3-1.2-0.5-1.7z"/><path d="m48.826 12.172c-2.1844-0.035156-4.3258 0.34141-6.4258 1.1289l-1 0.5c-4.4667 3-6.8 7.1318-7 12.398l-0.09961 2.6016c0 2.5-0.10078 5 0.69922 7.5 0.46667 0.86667 0.53255 1.7329 0.19922 2.5996v0.099609c-0.4 1.3333-0.06667 2.5 1 3.5 0.93333 0.93333 1.9333 1.1 3 0.5l0.5-0.19922c1.3333-0.46667 2.1337-0.034502 2.4004 1.2988l1.0996 4.7012c0.2 0.8 0.66706 1.3 1.4004 1.5s1.2663-0.034502 1.5996-0.70117l0.40039-0.40039c0.3 1 1 1.8004 2 1.4004 0.8-0.33333 1.5674-0.7655 2.3008-1.2988 1.3333 1.5333 2.6667 1.6322 4 0.29883l1-1.9004 1.1992-2.3984-1.1992 5.7988c0 0.73333-0.40117 1.3341-1.2012 1.8008-0.4-0.8-0.89844-1.7012-1.8984-1.2012-0.53333 0.33333-1.1012 0.90117-1.7012 1.7012-0.2-0.8-0.19883-1.7008-1.2988-1.8008-1.1333 0-1.8 0.60078-2 1.8008-1.6-1.9-2.0016-1.9-4.1016-0.5-1-0.7-0.99922-0.69961-1.1992-1.5996l-0.90039-4.3008c-0.2722-0.82685-0.67675-1.6045-1.1992-2.3008-0.32819-0.3906-0.79403-0.64023-1.3008-0.69922-0.6 0.06667-0.93333 0.4-1 1v2.3008c0.2 1.5333 0.33372 3.0992 0.40039 4.6992 0 1 0.43411 1.8663 1.3008 2.5996l3.1992 3.4004c0.8 1.0667 1.8329 1.5996 3.0996 1.5996 1.3333-0.13333 2.6667-0.13333 4 0 1.4667 0.26667 2.8-0.03372 4-0.90039 1.3333-1 2.5329-2.0659 3.5996-3.1992 0.66667-0.66667 1.0349-1.5 1.1016-2.5l0.79883-4.1992 0.80078-3.7012c0.2-0.73333 3.9e-4 -1.2663-0.59961-1.5996-0.73333-0.4-1.4-0.26628-2 0.40039l-0.80078 1.2988 0.19922-1.1992c0.2-1.6 0.50156-1.8992 2.1016-1.6992h0.5c1.7 0.4 2.7-0.50078 3.5-1.8008 0.66667-1.2 0.5-2.3008-0.5-3.3008-0.66667-0.6-0.76745-1.3326-0.30078-2.1992 1.1721-1.9156 1.6656-4.1704 1.4004-6.4004-0.34225-3.552-1.5067-6.9756-3.4004-10-1.4705-2.5485-3.762-4.5223-6.5-5.5996-1.75-0.525-3.4749-0.80078-5.1738-0.82812zm6.2734 18.328h1c0.73333 0 1.2004 0.33333 1.4004 1l0.30078 2.4004v0.79883c-0.06667 1.8-0.9349 2.3678-2.6016 1.7012-1.2467-0.4601-2.1835-1.5101-2.5-2.8008-0.26667-1.8 0.53372-2.8329 2.4004-3.0996zm-12 0.30078c0.8 0.1 2-0.001172 2.5 1.2988 0.46667 1.2 0.20117 2.3337-0.79883 3.4004l-1.8008 2c-0.66667 0.66667-1.3004 0.66667-1.9004 0l-0.79883-1.1992-0.40039-2c-0.4-2.2667 0.6-3.4004 3-3.4004l0.19922-0.09961zm6 5.5c1.2 1 2.2 3.8 2 6-1.2-0.7-2.1992-2.1016-3.6992-0.60156l1.6992-5.3984z"/><path d="M40.2 68.8q-.6-.2-1.2-.1l-5 1.5-1.5.8c1.3 1.2 2.8 1.5 4.3 2l-1.1 1.4q-.6 1.1-1 2.4-.3 1.2 1 1.1t2.5-.4l9.3-3.7.7-.8-.6-.3zm-12.7 6.8c-.7-1.3-1.4-2.6-3.3-2.3h-.1c-1.8-.4-1.8-.3-2.5 1.2l-.7-.6q-1.3-1.2-2.1-.5-1 .7-.8 2.1l1.1 3.3q.8 1.5 2.4 1.5l4.2.2h2q1.8-.4 1.1-2zm51.9-2-1.2 1c-.4-1.5-.6-1.7-2.2-1.4l-1.4.1q-.5 0-.9.4-1.5 2.5-2.6 5-.6 1.4 1 1.8h1.3q2.7 0 5.4-.3.8 0 1.5-.6 1.5-2.2 1.6-4.9c0-1.3-1.4-2-2.5-1.1"/><path d="m16.5 74.7-.8-.6c-1.4-1-4.2-.5-4.6 2q-.5 2.6 1.1 4.8c2 2.7 5.2 2.4 6.6-.6l-1.9-.7q2-2.9-.4-4.9M86 73.6c-2.2-.2-4.5 2.4-3.8 4.6q.3.8.8 1.5l-1 .2-.9.4q2.5 4.2 6 1.3c1.5-1.3 1.8-3 1.8-5q-.1-2.6-2.8-3"/></svg>
