<svg xmlns="http://www.w3.org/2000/svg" version="1.1" viewBox="-5.0 -10.0 110.0 135.0">
 <path d="m24.387 0.16016-9.875 4.9453c-0.41406 0.21094-0.63672 0.74219-0.5 1.1875l9.3633 30.938c-1.0117-0.3125-2.1914-0.35547-3.4023-0.03125-2.4844 0.66797-4.1797 2.6094-4.0586 4.5l-1.4688 0.59375c-1.0156-0.31641-2.2188-0.35547-3.4336-0.03125-1.832 0.49219-3.2109 1.6836-3.7773 3.0312l-6.6484 2.7812c-0.35938 0.16016-0.60156 0.54688-0.59375 0.9375v5c-0.0039063 0.09375 0.0078125 0.19141 0.03125 0.28125l10.984 35c0.097657 0.33203 0.38281 0.60547 0.71875 0.6875l42.945 10c0.23047 0.050781 0.47656 0.015625 0.6875-0.09375l19.973-10c0.21484-0.11328 0.38281-0.30469 0.46875-0.53125 5.3242-13.074 10.688-27.109 15.918-39.809 5.0195-7.0391 9.1406-14.363 8.1133-24.656-0.97266-7.8047-6.4961-15.617-15.66-17.535-19.469-2.5742-39.461-4.918-59.117-7.3359-0.28125-0.050781-0.44922 0.054688-0.67188 0.14844zm-8.0352 6.9766 11.672 1.25 5.9609 22.875c0.050781 0.57812 0.6875 1.0312 1.25 0.88281 0.5625-0.14844 0.89453-0.85547 0.65625-1.3828l-5.7734-22.156 50 5.3125 8.4258 29.531c-1.0586-0.38672-2.3477-0.44531-3.6523-0.09375-1.2734 0.34375-2.3672 1.0078-3.0898 1.8438-0.82422-1.7188-3.2734-2.5781-5.7734-1.9062-2.7344 0.73438-4.543 3.043-3.9961 5.0938 0.55078 2.0508 3.2578 3.1094 5.9922 2.375 1.2852-0.34375 2.332-1.0312 3.0586-1.875 0.15625 0.33203 0.35547 0.64062 0.625 0.90625-0.027343 0.039062-8.2461 3.8516-11.109 5.1875 0.26562-0.65234 0.36328-1.3359 0.1875-2-0.55078-2.0508-3.2578-3.1406-5.9922-2.4062s-4.5117 3.043-3.9648 5.0938c0.33984 1.2734 1.5039 2.1797 2.9961 2.5l-5.9922 2.7812-53.527-12.25 2.8086-1.1562c0.67578 1.9102 3.2656 2.8945 5.8984 2.1875 2.7344-0.73438 4.543-3.0117 3.9961-5.0625-0.10547-0.38672-0.32031-0.71875-0.5625-1.0312l0.25-0.09375c1.6406 2.0117 3.9766 1.5586 6.0234 0.875-0.66016 0.89453-0.94922 1.9219-0.6875 2.9062 0.55078 2.0508 3.2266 3.1406 5.9609 2.4062 2.6289-0.85156 4.8281-3.3477 3.6523-5.8125 2.875-0.63672 4.957-3.0898 4.4961-5.1562-0.55078-2.0508-3.2266-3.1406-5.9609-2.4062-2.8867 0.89844-4.7539 3.3438-3.6836 5.8125-0.44531 0.039062-0.86719 0.22656-1.25 0.375 0.76562-1.3047 0.79688-2.582 0.65625-3.8438zm70.91 3.2812c6.1758 2.7305 9.8555 8.707 10.613 14.688 0.72266 5.4062-0.78906 10.906-2.7461 15.031zm-38.324 24.938c-1.332 0.35938-2.4609 1.0781-3.1836 1.9688-1.1641-0.875-2.9531-1.207-4.7734-0.71875-2.7344 0.73438-4.543 3.043-3.9961 5.0938 0.55078 2.0508 3.2578 3.1094 5.9922 2.375 1.332-0.35938 2.4297-1.082 3.1523-1.9688 0.89844 0.67188 2.1836 1.0117 3.5586 0.90625-1.1641 1.0312-1.75 2.4258-1.4062 3.7188 0.28125 1.0547 1.1484 1.8555 2.2773 2.2812-1.8164 1.0312-2.9023 2.8086-2.4648 4.4375 0.55078 2.0508 3.2578 3.1094 5.9922 2.375 2.7344-0.73438 4.543-3.0117 3.9961-5.0625-0.28516-1.0625-1.168-1.8555-2.3086-2.2812 0.46484-0.25781 0.86328-0.56641 1.2188-0.90625 1.2969 2.6406 3.9141 3.125 6.0234 2.5312 2.7344-0.73438 4.5117-3.043 3.9648-5.0938-0.32031-1.1992-1.3789-2.0391-2.7461-2.4062 0.64062-0.88672 0.91406-1.9023 0.65625-2.875-0.55078-2.0508-3.2266-3.1094-5.9609-2.375-2.3242 0.625-3.9531 2.3555-4.0586 4.125-0.4375-0.066407-0.90234-0.066407-1.375-0.03125 1.168-1.0312 1.75-2.4258 1.4062-3.7188-1.0625-2.5703-3.4688-2.8477-5.9609-2.375zm-8.9883 9.7812c-2.8281 0-5.1797 1.75-5.1797 3.875s2.3516 3.8438 5.1797 3.8438 5.1484-1.7188 5.1484-3.8438-2.3203-3.875-5.1484-3.875zm49.812 3.9688-2.1211 5.3125-28.715 12.062v-3.8438l25.062-11.719c1.0312 0.10156 2.0625 0.12109 2.9023-0.09375 1.0977-0.39844 2.1602-0.98828 2.8711-1.7188zm-87.762 1.1562 54.93 12.562v3.9062l-54.93-13.5zm0.46875 5.1562 15.512 3.8125 2.9961 17.938c0.066407 0.36719 0.35938 0.68359 0.71875 0.78125l10.984 3c0.4375 0.12109 0.94531-0.097657 1.1562-0.5l7.707-15.438 15.324 3.7812-0.46875 4.8125-11.172-3.5625-0.59375 1.9062 11.547 3.6875-0.34375 3.8125-5.5234-2.375-0.78125 1.8438 6.0859 2.625-1.5586 16.188-41.32-9.5938-1.5898-5.125h4.8359v-2h-5.4922l-1.8711-6h2.3711v-2h-2.9961zm84.113 1.625-3.5586 8.9688h-5.1172v2h4.3086l-8.082 20.25-18.039 9.0312 0.40625-4.4688 6.8047-2.9062-0.78125-1.8438-5.8047 2.5 0.375-3.7812 11.203-4.875-0.78125-1.8438-10.207 4.4375 1.5312-15.812zm-66.477 2.6875 16.355 4.0312-7.1172 14.219-6.4922-1.7812zm7.1484 6.25c-1.3047-0.011719-1.2812 3.0312-1.2812 4.0312l-1 4h3.9961l-0.53125-4c0-1 0.21094-4.0234-1.1875-4.0312z"/></svg>