999
dxfrw 0.6.3
  0
SECTION
  2
HEADER
  9
$ACADVER
  1
AC1021
  9
$DWGCODEPAGE
  3
ANSI_1252
  9
$INSBASE
 10
0
 20
0
 30
0
  9
$EXTMIN
 10
0
 20
-3200
 30
0
  9
$EXTMAX
 10
16396.58552364845
 20
2311.109593114588
 30
0
  9
$LIMMIN
 10
0
 20
0
  9
$LIMMAX
 10
420
 20
297
  9
$ORTHOMODE
 70
    0
  9
$REGENMODE
 70
    1
  9
$FILLMODE
 70
    1
  9
$QTEXTMODE
 70
    0
  9
$MIRRTEXT
 70
    1
  9
$LTSCALE
 40
1
  9
$ATTMODE
 70
    1
  9
$TEXTSIZE
 40
2.5
  9
$TRACEWID
 40
1
  9
$TEXTSTYLE
  7
Standard
  9
$CLAYER
  8
FAIR_SHEER_PROFILE
  9
$CELTYPE
  6
ByLayer
  9
$CECOLOR
 62
  256
  9
$CELTSCALE
 40
1
  9
$DISPSILH
 70
    0
  9
$DIMSCALE
 40
1
  9
$DIMASZ
 40
2.5
  9
$DIMEXO
 40
0.625
  9
$DIMDLI
 40
3.75
  9
$DIMRND
 40
0
  9
$DIMDLE
 40
0
  9
$DIMEXE
 40
1.25
  9
$DIMTP
 40
0
  9
$DIMTM
 40
0
  9
$DIMTXT
 40
2.5
  9
$DIMCEN
 40
2.5
  9
$DIMTSZ
 40
0
  9
$DIMTOL
 70
    0
  9
$DIMLIM
 70
    0
  9
$DIMTIH
 70
    0
  9
$DIMTOH
 70
    0
  9
$DIMSE1
 70
    0
  9
$DIMSE2
 70
    0
  9
$DIMTAD
 70
    1
  9
$DIMZIN
 70
    8
  9
$DIMBLK
  1

  9
$DIMASO
 70
    1
  9
$DIMSHO
 70
    1
  9
$DIMPOST
  1

  9
$DIMAPOST
  1

  9
$DIMALT
 70
    0
  9
$DIMALTD
 70
    3
  9
$DIMALTF
 40
0.03937007874
  9
$DIMLFAC
 40
1
  9
$DIMTOFL
 70
    1
  9
$DIMTVP
 40
0
  9
$DIMTIX
 70
    0
  9
$DIMSOXD
 70
    0
  9
$DIMSAH
 70
    0
  9
$DIMBLK1
  1

  9
$DIMBLK2
  1

  9
$DIMSTYLE
  2
ISO-25
  9
$DIMCLRD
 70
    0
  9
$DIMCLRE
 70
    0
  9
$DIMCLRT
 70
    0
  9
$DIMTFAC
 40
1
  9
$DIMGAP
 40
0.625
  9
$DIMJUST
 70
    0
  9
$DIMSD1
 70
    0
  9
$DIMSD2
 70
    0
  9
$DIMTOLJ
 70
    0
  9
$DIMTZIN
 70
    8
  9
$DIMALTZ
 70
    0
  9
$DIMALTTZ
 70
    0
  9
$DIMUPT
 70
    0
  9
$DIMDEC
 70
    2
  9
$DIMTDEC
 70
    2
  9
$DIMALTU
 70
    2
  9
$DIMALTTD
 70
    3
  9
$DIMTXSTY
  7
Standard
  9
$DIMAUNIT
 70
    0
  9
$DIMADEC
 70
    0
  9
$DIMALTRND
 40
0
  9
$DIMAZIN
 70
    0
  9
$DIMDSEP
 70
   44
  9
$DIMATFIT
 70
    3
  9
$DIMFRAC
 70
    0
  9
$DIMLDRBLK
  1

  9
$DIMLUNIT
 70
    2
  9
$DIMLWD
 70
   -2
  9
$DIMLWE
 70
   -2
  9
$DIMTMOVE
 70
    0
  9
$DIMFXL
 40
1
  9
$DIMFXLON
 70
    0
  9
$DIMJOGANG
 40
0.785398163397
  9
$DIMTFILL
 70
    0
  9
$DIMTFILLCLR
 70
    0
  9
$DIMARCSYM
 70
    0
  9
$DIMLTYPE
  6

  9
$DIMLTEX1
  6

  9
$DIMLTEX2
  6

  9
$LUNITS
 70
    2
  9
$LUPREC
 70
    4
  9
$SKETCHINC
 40
1
  9
$FILLETRAD
 40
10
  9
$AUNITS
 70
    0
  9
$AUPREC
 70
    2
  9
$MENU
  1
.
  9
$ELEVATION
 40
0
  9
$PELEVATION
 40
0
  9
$THICKNESS
 40
0
  9
$LIMCHECK
 70
    0
  9
$CHAMFERA
 40
0
  9
$CHAMFERB
 40
0
  9
$CHAMFERC
 40
0
  9
$CHAMFERD
 40
0
  9
$SKPOLY
 70
    0
  9
$USRTIMER
 70
    1
  9
$ANGBASE
 50
0
  9
$ANGDIR
 70
    0
  9
$PDMODE
 70
    0
  9
$PDSIZE
 40
0
  9
$PLINEWID
 40
0
  9
$SPLFRAME
 70
    0
  9
$SPLINETYPE
 70
    6
  9
$SPLINESEGS
 70
    8
  9
$HANDSEED
  5
20000
  9
$SURFTAB1
 70
    6
  9
$SURFTAB2
 70
    6
  9
$SURFTYPE
 70
    6
  9
$SURFU
 70
    6
  9
$SURFV
 70
    6
  9
$UCSBASE
  2

  9
$UCSNAME
  2

  9
$UCSORG
 10
0
 20
0
 30
0
  9
$UCSXDIR
 10
1
 20
0
 30
0
  9
$UCSYDIR
 10
0
 20
1
 30
0
  9
$UCSORTHOREF
  2

  9
$UCSORTHOVIEW
 70
    0
  9
$UCSORGTOP
 10
0
 20
0
 30
0
  9
$UCSORGBOTTOM
 10
0
 20
0
 30
0
  9
$UCSORGLEFT
 10
0
 20
0
 30
0
  9
$UCSORGRIGHT
 10
0
 20
0
 30
0
  9
$UCSORGFRONT
 10
0
 20
0
 30
0
  9
$UCSORGBACK
 10
0
 20
0
 30
0
  9
$PUCSBASE
  2

  9
$PUCSNAME
  2

  9
$PUCSORG
 10
0
 20
0
 30
0
  9
$PUCSXDIR
 10
1
 20
0
 30
0
  9
$PUCSYDIR
 10
0
 20
1
 30
0
  9
$PUCSORTHOREF
  2

  9
$PUCSORTHOVIEW
 70
    0
  9
$PUCSORGTOP
 10
0
 20
0
 30
0
  9
$PUCSORGBOTTOM
 10
0
 20
0
 30
0
  9
$PUCSORGLEFT
 10
0
 20
0
 30
0
  9
$PUCSORGRIGHT
 10
0
 20
0
 30
0
  9
$PUCSORGFRONT
 10
0
 20
0
 30
0
  9
$PUCSORGBACK
 10
0
 20
0
 30
0
  9
$USERI1
 70
    0
  9
$USERI2
 70
    0
  9
$USERI3
 70
    0
  9
$USERI4
 70
    0
  9
$USERI5
 70
    0
  9
$USERR1
 40
0
  9
$USERR2
 40
0
  9
$USERR3
 40
0
  9
$USERR4
 40
0
  9
$USERR5
 40
0
  9
$WORLDVIEW
 70
    1
  9
$SHADEDGE
 70
    3
  9
$SHADEDIF
 70
   70
  9
$TILEMODE
 70
    1
  9
$MAXACTVP
 70
   64
  9
$PINSBASE
 10
0
 20
0
 30
0
  9
$PLIMCHECK
 70
    0
  9
$PEXTMIN
 10
1e+20
 20
1e+20
 30
1e+20
  9
$PEXTMAX
 10
-1e+20
 20
-1e+20
 30
-1e+20
  9
$GRIDMODE
 70
    0
  9
$SNAPSTYLE
 70
    0
  9
$PLIMMIN
 10
0
 20
0
  9
$PLIMMAX
 10
420
 20
297
  9
$UNITMODE
 70
    0
  9
$VISRETAIN
 70
    1
  9
$PLINEGEN
 70
    0
  9
$PSLTSCALE
 70
    1
  9
$TREEDEPTH
 70
 3020
  9
$CMLSTYLE
  2
Standard
  9
$CMLJUST
 70
    0
  9
$CMLSCALE
 40
20
  9
$PROXYGRAPHICS
 70
    1
  9
$MEASUREMENT
 70
    1
  9
$CELWEIGHT
370
   -1
  9
$ENDCAPS
280
    0
  9
$JOINSTYLE
280
    0
  9
$LWDISPLAY
290
    0
  9
$INSUNITS
 70
    4
  9
$HYPERLINKBASE
  1

  9
$STYLESHEET
  1

  9
$XEDIT
290
    1
  9
$CEPSNTYPE
380
    0
  9
$PSTYLEMODE
290
    1
  9
$EXTNAMES
290
    1
  9
$PSVPSCALE
 40
0
  9
$OLESTARTUP
290
    0
  9
$SORTENTS
280
  127
  9
$INDEXCTL
280
    0
  9
$HIDETEXT
280
    1
  9
$XCLIPFRAME
290
    1
  9
$HALOGAP
280
    0
  9
$OBSCOLOR
 70
  257
  9
$OBSLTYPE
280
    0
  9
$INTERSECTIONDISPLAY
280
    0
  9
$INTERSECTIONCOLOR
 70
  257
  9
$DIMASSOC
280
    2
  9
$PROJECTNAME
  1

  9
$CAMERADISPLAY
290
    0
  9
$LENSLENGTH
 40
50
  9
$CAMERAHEIGHT
 40
0
  9
$STEPSPERSEC
 40
24
  9
$STEPSIZE
 40
100
  9
$3DDWFPREC
 40
2
  9
$PSOLWIDTH
 40
0.005
  9
$PSOLHEIGHT
 40
0.08
  9
$LOFTANG1
 40
1.570796326795
  9
$LOFTANG2
 40
1.570796326795
  9
$LOFTMAG1
 40
0
  9
$LOFTMAG2
 40
0
  9
$LOFTPARAM
 70
    7
  9
$LOFTNORMALS
280
    1
  9
$LATITUDE
 40
37.795
  9
$LONGITUDE
 40
-122.394
  9
$NORTHDIRECTION
 40
0
  9
$TIMEZONE
 70
-8000
  9
$LIGHTGLYPHDISPLAY
280
    1
  9
$TILEMODELIGHTSYNCH
280
    1
  9
$SOLIDHIST
280
    0
  9
$SHOWHIST
280
    1
  9
$DWFFRAME
280
    2
  9
$DGNFRAME
280
    2
  9
$REALWORLDSCALE
290
    1
  9
$INTERFERECOLOR
 62
  256
  9
$CSHADOW
280
    0
  9
$SHADOWPLANELOCATION
 40
0
  0
ENDSEC
  0
SECTION
  2
CLASSES
  0
ENDSEC
  0
SECTION
  2
TABLES
  0
TABLE
  2
VPORT
  5
8
330
0
100
AcDbSymbolTable
 70
    1
  0
VPORT
  5
31
330
2
100
AcDbSymbolTableRecord
100
AcDbViewportTableRecord
  2
*ACTIVE
 70
    0
 10
0
 20
0
 11
1
 21
1
 12
13806.67530521448
 22
7805.785144624056
 13
0
 23
0
 14
10
 24
10
 15
10
 25
10
 16
0
 26
0
 36
1
 17
0
 27
0
 37
0
 40
24774.88328511113
 41
1.674968866749689
 42
50
 43
0
 44
0
 50
0
 51
0
 71
    0
 72
  100
 73
    1
 74
    3
 75
    0
 76
    0
 77
    0
 78
    0
281
    0
 65
    1
110
0
120
0
130
0
111
1
121
0
131
0
112
0
122
1
132
0
 79
    0
146
0
348
10020
 60
    7
 61
    5
292
1
282
    1
141
0
142
0
 63
  250
421
3358443
  0
ENDTAB
  0
TABLE
  2
LTYPE
  5
5
330
0
100
AcDbSymbolTable
 70
    4
  0
LTYPE
  5
14
330
5
100
AcDbSymbolTableRecord
100
AcDbLinetypeTableRecord
  2
ByBlock
 70
    0
  3

 72
   65
 73
    0
 40
0
  0
LTYPE
  5
15
330
5
100
AcDbSymbolTableRecord
100
AcDbLinetypeTableRecord
  2
ByLayer
 70
    0
  3

 72
   65
 73
    0
 40
0
  0
LTYPE
  5
16
330
5
100
AcDbSymbolTableRecord
100
AcDbLinetypeTableRecord
  2
Continuous
 70
    0
  3
Solid line
 72
   65
 73
    0
 40
0
  0
LTYPE
  5
32
330
5
100
AcDbSymbolTableRecord
100
AcDbLinetypeTableRecord
  2
DOT
 70
    0
  3
Dot . . . . . . . . . . . . . . . . . . . . . .
 72
   65
 73
    2
 40
6.35
 49
0
 74
    0
 49
-6.35
 74
    0
  0
LTYPE
  5
33
330
5
100
AcDbSymbolTableRecord
100
AcDbLinetypeTableRecord
  2
DOTTINY
 70
    0
  3
Dot (.15x) .....................................
 72
   65
 73
    2
 40
0.9525
 49
0
 74
    0
 49
-0.9525
 74
    0
  0
LTYPE
  5
34
330
5
100
AcDbSymbolTableRecord
100
AcDbLinetypeTableRecord
  2
DOT2
 70
    0
  3
Dot (.5x) .....................................
 72
   65
 73
    2
 40
3.175
 49
0
 74
    0
 49
-3.175
 74
    0
  0
LTYPE
  5
35
330
5
100
AcDbSymbolTableRecord
100
AcDbLinetypeTableRecord
  2
DOTX2
 70
    0
  3
Dot (2x) .  .  .  .  .  .  .  .  .  .  .  .  .
 72
   65
 73
    2
 40
12.7
 49
0
 74
    0
 49
-12.7
 74
    0
  0
LTYPE
  5
36
330
5
100
AcDbSymbolTableRecord
100
AcDbLinetypeTableRecord
  2
DASHED
 70
    0
  3
Dashed _ _ _ _ _ _ _ _ _ _ _ _ _ _ _ _ _
 72
   65
 73
    2
 40
19.05
 49
12.7
 74
    0
 49
-6.35
 74
    0
  0
LTYPE
  5
37
330
5
100
AcDbSymbolTableRecord
100
AcDbLinetypeTableRecord
  2
DASHEDTINY
 70
    0
  3
Dashed (.15x) _ _ _ _ _ _ _ _ _ _ _ _ _ _ _ _ _
 72
   65
 73
    2
 40
2.8575
 49
1.905
 74
    0
 49
-0.9525
 74
    0
  0
LTYPE
  5
38
330
5
100
AcDbSymbolTableRecord
100
AcDbLinetypeTableRecord
  2
DASHED2
 70
    0
  3
Dashed (.5x) _ _ _ _ _ _ _ _ _ _ _ _ _ _ _ _ _
 72
   65
 73
    2
 40
9.524999999999999
 49
6.35
 74
    0
 49
-3.175
 74
    0
  0
LTYPE
  5
39
330
5
100
AcDbSymbolTableRecord
100
AcDbLinetypeTableRecord
  2
DASHEDX2
 70
    0
  3
Dashed (2x) ____  ____  ____  ____  ____  ___
 72
   65
 73
    2
 40
38.09999999999999
 49
25.4
 74
    0
 49
-12.7
 74
    0
  0
LTYPE
  5
3A
330
5
100
AcDbSymbolTableRecord
100
AcDbLinetypeTableRecord
  2
DASHDOT
 70
    0
  3
Dash dot __ . __ . __ . __ . __ . __ . __ . __
 72
   65
 73
    4
 40
25.4
 49
12.7
 74
    0
 49
-6.35
 74
    0
 49
0
 74
    0
 49
-6.35
 74
    0
  0
LTYPE
  5
3B
330
5
100
AcDbSymbolTableRecord
100
AcDbLinetypeTableRecord
  2
DASHDOTTINY
 70
    0
  3
Dash dot (.15x) _._._._._._._._._._._._._._._.
 72
   65
 73
    4
 40
3.81
 49
1.905
 74
    0
 49
-0.9525
 74
    0
 49
0
 74
    0
 49
-0.9525
 74
    0
  0
LTYPE
  5
3C
330
5
100
AcDbSymbolTableRecord
100
AcDbLinetypeTableRecord
  2
DASHDOT2
 70
    0
  3
Dash dot (.5x) _._._._._._._._._._._._._._._.
 72
   65
 73
    4
 40
12.7
 49
6.35
 74
    0
 49
-3.175
 74
    0
 49
0
 74
    0
 49
-3.175
 74
    0
  0
LTYPE
  5
3D
330
5
100
AcDbSymbolTableRecord
100
AcDbLinetypeTableRecord
  2
DASHDOTX2
 70
    0
  3
Dash dot (2x) ____  .  ____  .  ____  .  ___
 72
   65
 73
    4
 40
50.8
 49
25.4
 74
    0
 49
-12.7
 74
    0
 49
0
 74
    0
 49
-12.7
 74
    0
  0
LTYPE
  5
3E
330
5
100
AcDbSymbolTableRecord
100
AcDbLinetypeTableRecord
  2
DIVIDE
 70
    0
  3
Divide ____ . . ____ . . ____ . . ____ . . ____
 72
   65
 73
    6
 40
31.75
 49
12.7
 74
    0
 49
-6.35
 74
    0
 49
0
 74
    0
 49
-6.35
 74
    0
 49
0
 74
    0
 49
-6.35
 74
    0
  0
LTYPE
  5
3F
330
5
100
AcDbSymbolTableRecord
100
AcDbLinetypeTableRecord
  2
DIVIDETINY
 70
    0
  3
Divide (.15x) __..__..__..__..__..__..__..__.._
 72
   65
 73
    6
 40
4.7625
 49
1.905
 74
    0
 49
-0.9525
 74
    0
 49
0
 74
    0
 49
-0.9525
 74
    0
 49
0
 74
    0
 49
-0.9525
 74
    0
  0
LTYPE
  5
40
330
5
100
AcDbSymbolTableRecord
100
AcDbLinetypeTableRecord
  2
DIVIDE2
 70
    0
  3
Divide (.5x) __..__..__..__..__..__..__..__.._
 72
   65
 73
    6
 40
15.875
 49
6.35
 74
    0
 49
-3.175
 74
    0
 49
0
 74
    0
 49
-3.175
 74
    0
 49
0
 74
    0
 49
-3.175
 74
    0
  0
LTYPE
  5
41
330
5
100
AcDbSymbolTableRecord
100
AcDbLinetypeTableRecord
  2
DIVIDEX2
 70
    0
  3
Divide (2x) ________  .  .  ________  .  .  _
 72
   65
 73
    6
 40
63.5
 49
25.4
 74
    0
 49
-12.7
 74
    0
 49
0
 74
    0
 49
-12.7
 74
    0
 49
0
 74
    0
 49
-12.7
 74
    0
  0
LTYPE
  5
42
330
5
100
AcDbSymbolTableRecord
100
AcDbLinetypeTableRecord
  2
BORDER
 70
    0
  3
Border __ __ . __ __ . __ __ . __ __ . __ __ .
 72
   65
 73
    6
 40
44.45
 49
12.7
 74
    0
 49
-6.35
 74
    0
 49
12.7
 74
    0
 49
-6.35
 74
    0
 49
0
 74
    0
 49
-6.35
 74
    0
  0
LTYPE
  5
43
330
5
100
AcDbSymbolTableRecord
100
AcDbLinetypeTableRecord
  2
BORDERTINY
 70
    0
  3
Border (.15x) __.__.__.__.__.__.__.__.__.__.__.
 72
   65
 73
    6
 40
6.6675
 49
1.905
 74
    0
 49
-0.9525
 74
    0
 49
1.905
 74
    0
 49
-0.9525
 74
    0
 49
0
 74
    0
 49
-0.9525
 74
    0
  0
LTYPE
  5
44
330
5
100
AcDbSymbolTableRecord
100
AcDbLinetypeTableRecord
  2
BORDER2
 70
    0
  3
Border (.5x) __.__.__.__.__.__.__.__.__.__.__.
 72
   65
 73
    6
 40
22.225
 49
6.35
 74
    0
 49
-3.175
 74
    0
 49
6.35
 74
    0
 49
-3.175
 74
    0
 49
0
 74
    0
 49
-3.175
 74
    0
  0
LTYPE
  5
45
330
5
100
AcDbSymbolTableRecord
100
AcDbLinetypeTableRecord
  2
BORDERX2
 70
    0
  3
Border (2x) ____  ____  .  ____  ____  .  ___
 72
   65
 73
    6
 40
88.89999999999999
 49
25.4
 74
    0
 49
-12.7
 74
    0
 49
25.4
 74
    0
 49
-12.7
 74
    0
 49
0
 74
    0
 49
-12.7
 74
    0
  0
LTYPE
  5
46
330
5
100
AcDbSymbolTableRecord
100
AcDbLinetypeTableRecord
  2
CENTER
 70
    0
  3
Center ____ _ ____ _ ____ _ ____ _ ____ _ ____
 72
   65
 73
    4
 40
50.8
 49
31.75
 74
    0
 49
-6.35
 74
    0
 49
6.35
 74
    0
 49
-6.35
 74
    0
  0
LTYPE
  5
47
330
5
100
AcDbSymbolTableRecord
100
AcDbLinetypeTableRecord
  2
CENTERTINY
 70
    0
  3
Center (.15x) ___ _ ___ _ ___ _ ___ _ ___ _ ___
 72
   65
 73
    4
 40
7.619999999999999
 49
4.7625
 74
    0
 49
-0.9525
 74
    0
 49
0.9525
 74
    0
 49
-0.9525
 74
    0
  0
LTYPE
  5
48
330
5
100
AcDbSymbolTableRecord
100
AcDbLinetypeTableRecord
  2
CENTER2
 70
    0
  3
Center (.5x) ___ _ ___ _ ___ _ ___ _ ___ _ ___
 72
   65
 73
    4
 40
28.575
 49
19.05
 74
    0
 49
-3.175
 74
    0
 49
3.175
 74
    0
 49
-3.175
 74
    0
  0
LTYPE
  5
49
330
5
100
AcDbSymbolTableRecord
100
AcDbLinetypeTableRecord
  2
CENTERX2
 70
    0
  3
Center (2x) ________  __  ________  __  _____
 72
   65
 73
    4
 40
101.6
 49
63.5
 74
    0
 49
-12.7
 74
    0
 49
12.7
 74
    0
 49
-12.7
 74
    0
  0
ENDTAB
  0
TABLE
  2
LAYER
  5
2
330
0
100
AcDbSymbolTable
 70
    1
  0
LAYER
  5
10
330
2
100
AcDbSymbolTableRecord
100
AcDbLayerTableRecord
  2
0
 70
    1
 62
   96
420
32768
  6
CONTINUOUS
370
   -3
390
F
  0
LAYER
  5
4A
330
2
100
AcDbSymbolTableRecord
100
AcDbLayerTableRecord
  2
BASELINE
 70
    1
 62
    8
  6
CONTINUOUS
370
   -3
390
F
  0
LAYER
  5
4B
330
2
100
AcDbSymbolTableRecord
100
AcDbLayerTableRecord
  2
BASE_PROFILE
 70
    0
 62
    5
  6
CONTINUOUS
370
   -3
390
F
  0
LAYER
  5
4C
330
2
100
AcDbSymbolTableRecord
100
AcDbLayerTableRecord
  2
CENTERLINE
 70
    0
 62
    8
  6
CONTINUOUS
370
   -3
390
F
  0
LAYER
  5
4D
330
2
100
AcDbSymbolTableRecord
100
AcDbLayerTableRecord
  2
CHINE_BOTTOM
 70
    5
 62
    5
  6
CONTINUOUS
370
   -3
390
F
  0
LAYER
  5
4E
330
2
100
AcDbSymbolTableRecord
100
AcDbLayerTableRecord
  2
CONSTRUCTION
 70
    1
 62
    7
  6
CONTINUOUS
370
    0
390
F
1001
LibreCad
1070
    1
  0
LAYER
  5
4F
330
2
100
AcDbSymbolTableRecord
100
AcDbLayerTableRecord
  2
Defpoints
 70
    0
 62
    7
  6
CONTINUOUS
290
0
370
   -3
390
F
  0
LAYER
  5
50
330
2
100
AcDbSymbolTableRecord
100
AcDbLayerTableRecord
  2
FAIR_BASE_PROFILE
 70
    0
 62
    4
  6
CONTINUOUS
370
    0
390
F
  0
LAYER
  5
51
330
2
100
AcDbSymbolTableRecord
100
AcDbLayerTableRecord
  2
FAIR_BOTTOM
 70
    0
 62
    4
  6
CONTINUOUS
370
    0
390
F
  0
LAYER
  5
52
330
2
100
AcDbSymbolTableRecord
100
AcDbLayerTableRecord
  2
FAIR_SHEER_PROFILE
 70
    0
 62
    6
  6
CONTINUOUS
370
    0
390
F
  0
LAYER
  5
53
330
2
100
AcDbSymbolTableRecord
100
AcDbLayerTableRecord
  2
FAIR_TOP
 70
    0
 62
    6
  6
CONTINUOUS
370
    0
390
F
  0
LAYER
  5
54
330
2
100
AcDbSymbolTableRecord
100
AcDbLayerTableRecord
  2
NOTES
 70
    1
 62
    7
  6
CONTINUOUS
370
   -3
390
F
  0
LAYER
  5
55
330
2
100
AcDbSymbolTableRecord
100
AcDbLayerTableRecord
  2
SHEER_PROFILE
 70
    1
 62
    1
  6
CONTINUOUS
370
   -3
390
F
  0
LAYER
  5
56
330
2
100
AcDbSymbolTableRecord
100
AcDbLayerTableRecord
  2
SHEER_TOP
 70
    1
 62
    1
  6
CONTINUOUS
370
   -3
390
F
  0
ENDTAB
  0
TABLE
  2
STYLE
  5
3
330
0
100
AcDbSymbolTable
 70
    3
  0
STYLE
  5
57
330
2
100
AcDbSymbolTableRecord
100
AcDbTextStyleTableRecord
  2
STANDARD
 70
    0
 40
0
 41
1
 50
0
 71
    0
 42
1
  3
STANDARD
  4

  0
ENDTAB
  0
TABLE
  2
VIEW
  5
6
330
0
100
AcDbSymbolTable
 70
    0
  0
ENDTAB
  0
TABLE
  2
UCS
  5
7
330
0
100
AcDbSymbolTable
 70
    0
  0
ENDTAB
  0
TABLE
  2
APPID
  5
9
330
0
100
AcDbSymbolTable
 70
    1
  0
APPID
  5
12
330
9
100
AcDbSymbolTableRecord
100
AcDbRegAppTableRecord
  2
ACAD
 70
    0
  0
APPID
  5
58
330
9
100
AcDbSymbolTableRecord
100
AcDbRegAppTableRecord
  2
LibreCad
 70
    0
  0
ENDTAB
  0
TABLE
  2
DIMSTYLE
  5
A
330
0
100
AcDbSymbolTable
 70
    1
100
AcDbDimStyleTable
 71
    1
  0
DIMSTYLE
105
59
330
A
100
AcDbSymbolTableRecord
100
AcDbDimStyleTableRecord
  2
Standard
 70
    0
 40
1
 41
2.5
 42
0.625
 43
0.38
 44
1.25
 45
0
 46
0
 47
0
 48
0
 49
1
140
2.5
141
0.09
142
0
143
25.4
144
1
145
0
146
1
147
0.625
148
0
 71
    0
 72
    0
 73
    0
 74
    1
 75
    0
 76
    0
 77
    0
 78
    8
 79
    0
170
    0
171
    2
172
    0
173
    0
174
    0
175
    0
176
    0
177
    0
178
    0
179
    0
271
    2
272
    4
273
    2
274
    2
275
    0
276
    0
277
    2
278
   44
279
    0
280
    0
281
    0
282
    0
283
    1
284
    0
285
    0
286
    0
288
    0
289
    3
340
57
  0
ENDTAB
  0
TABLE
  2
BLOCK_RECORD
  5
1
330
0
100
AcDbSymbolTable
 70
    2
  0
BLOCK_RECORD
  5
1F
330
1
100
AcDbSymbolTableRecord
100
AcDbBlockTableRecord
  2
*Model_Space
 70
    0
280
    1
281
    0
  0
BLOCK_RECORD
  5
1E
330
1
100
AcDbSymbolTableRecord
100
AcDbBlockTableRecord
  2
*Paper_Space
 70
    0
280
    1
281
    0
  0
ENDTAB
  0
ENDSEC
  0
SECTION
  2
BLOCKS
  0
BLOCK
  5
20
330
1F
100
AcDbEntity
  8
0
100
AcDbBlockBegin
  2
*Model_Space
 70
    0
 10
0
 20
0
 30
0
  3
*Model_Space
  1

  0
ENDBLK
  5
21
330
1F
100
AcDbEntity
  8
0
100
AcDbBlockEnd
  0
BLOCK
  5
1C
330
1B
100
AcDbEntity
  8
0
100
AcDbBlockBegin
  2
*Paper_Space
 70
    0
 10
0
 20
0
 30
0
  3
*Paper_Space
  1

  0
ENDBLK
  5
1D
330
1F
100
AcDbEntity
  8
0
100
AcDbBlockEnd
  0
ENDSEC
  0
SECTION
  2
ENTITIES
  0
LWPOLYLINE
  5
5A
100
AcDbEntity
  8
SHEER_TOP
  6
ByLayer
 62
  256
370
   -1
100
AcDbPolyline
 90
   60
 70
    0
 43
0
 10
136.3797607421875
 20
96.397216796875
 10
409.1392822265625
 20
152.337890625
 10
681.8988037109375
 20
435.03662109375
 10
954.6583251953125
 20
583.8780517578125
 10
1227.417846679688
 20
819.6270751953125
 10
1500.177368164062
 20
959.47802734375
 10
1772.936889648438
 20
1209.212158203125
 10
2045.696411132812
 20
1325.088745117188
 10
2318.455932617188
 20
1484.91845703125
 10
2591.215454101562
 20
1555.843017578125
 10
2863.974975585938
 20
1681.708984375
 10
3136.734497070312
 20
1748.6376953125
 10
3409.494018554688
 20
1844.535522460938
 10
3682.253540039062
 20
1911.464233398438
 10
3955.013061523438
 20
1961.4111328125
 10
4227.772583007812
 20
1995.374877929688
 10
4500.532104492188
 20
2041.325927734375
 10
4773.291625976562
 20
2070.295166015625
 10
5046.051147460938
 20
2103.260009765625
 10
5318.810668945312
 20
2130.231323242188
 10
5591.570190429688
 20
2143.217407226562
 10
5864.329711914062
 20
2153.207275390625
 10
6137.089233398438
 20
2185.173095703125
 10
6409.848754882812
 20
2199.157958984375
 10
6682.608276367188
 20
2219.136962890625
 10
6955.367797851562
 20
2246.10791015625
 10
7228.127319335938
 20
2263.090087890625
 10
7500.886840820312
 20
2273.0791015625
 10
7773.646362304688
 20
2289.062133789062
 10
8046.405883789062
 20
2287.064208984375
 10
8319.165405273438
 20
2304.046142578125
 10
8591.924926757812
 20
2306.044067382812
 10
8864.684448242188
 20
2307.043212890625
 10
9137.443969726562
 20
2306.044189453125
 10
9410.203491210938
 20
2304.046630859375
 10
9682.963012695312
 20
2305.045166015625
 10
9955.722534179688
 20
2307.043212890625
 10
10228.48205566406
 20
2301.049560546875
 10
10501.24157714844
 20
2294.056884765625
 10
10774.00109863281
 20
2292.059326171875
 10
11046.76062011719
 20
2268.084716796875
 10
11319.52014160156
 20
2250.103759765625
 10
11592.27966308594
 20
2240.114501953125
 10
11865.03918457031
 20
2224.131591796875
 10
12137.79870605469
 20
2190.167724609375
 10
12410.55822753906
 20
2156.203857421875
 10
12683.31774902344
 20
2117.245361328125
 10
12956.07727050781
 20
2083.281494140625
 10
13228.83679199219
 20
2048.318603515625
 10
13501.59631347656
 20
1967.405029296875
 10
13774.35583496094
 20
1893.483642578125
 10
14047.11535644531
 20
1815.566650390625
 10
14319.87487792969
 20
1687.702880859375
 10
14592.63439941406
 20
1544.85498046875
 10
14865.39392089844
 20
1412.995361328125
 10
15138.15344238281
 20
818.62841796875
 10
15410.91296386719
 20
954.483642578125
 10
15683.67248535156
 20
441.0301513671875
 10
15956.43200683594
 20
418.0546875
 10
16229.19152832031
 20
193.294189453125
  0
LWPOLYLINE
  5
5B
100
AcDbEntity
  8
CHINE_BOTTOM
  6
ByLayer
 62
  256
370
   -1
100
AcDbPolyline
 90
   60
 70
    0
 43
0
 10
136.3797607421875
 20
997.4376220703125
 10
409.1392822265625
 20
821.6248779296875
 10
681.8988037109375
 20
63.432373046875
 10
954.6583251953125
 20
52.444091796875
 10
1227.417846679688
 20
438.033447265625
 10
1500.177368164062
 20
649.807861328125
 10
1772.936889648438
 20
759.6907958984375
 10
2045.696411132812
 20
921.5185546875
 10
2318.455932617188
 20
1029.403564453125
 10
2591.215454101562
 20
1161.26318359375
 10
2863.974975585938
 20
1186.236572265625
 10
3136.734497070312
 20
1310.104675292969
 10
3409.494018554688
 20
1399.010009765625
 10
3682.253540039062
 20
1466.937744140625
 10
3955.013061523438
 20
1534.865234375
 10
4227.772583007812
 20
1552.84619140625
 10
4500.532104492188
 20
1065.365356445312
 10
4773.291625976562
 20
1641.75146484375
 10
5046.051147460938
 20
1678.712158203125
 10
5318.810668945312
 20
1700.688720703125
 10
5591.570190429688
 20
1715.6728515625
 10
5864.329711914062
 20
1739.647216796875
 10
6137.089233398438
 20
1754.63134765625
 10
6409.848754882812
 20
1764.62060546875
 10
6682.608276367188
 20
1781.6025390625
 10
6955.367797851562
 20
1783.600341796875
 10
7228.127319335938
 20
1797.58544921875
 10
7500.886840820312
 20
1808.573852539062
 10
7773.646362304688
 20
1808.573852539062
 10
8046.405883789062
 20
1820.56103515625
 10
8319.165405273438
 20
1833.547607421875
 10
8591.924926757812
 20
1846.533447265625
 10
8864.684448242188
 20
1858.520751953125
 10
9137.443969726562
 20
1855.524169921875
 10
9410.203491210938
 20
1870.508056640625
 10
9682.963012695312
 20
1874.503662109375
 10
9955.722534179688
 20
1845.534912109375
 10
10228.48205566406
 20
1847.532470703125
 10
10501.24157714844
 20
1844.535888671875
 10
10774.00109863281
 20
1833.547607421875
 10
11046.76062011719
 20
1849.530517578125
 10
11319.52014160156
 20
1843.536865234375
 10
11592.27966308594
 20
1835.545166015625
 10
11865.03918457031
 20
1782.601806640625
 10
12137.79870605469
 20
1775.609130859375
 10
12410.55822753906
 20
1745.64111328125
 10
12683.31774902344
 20
1696.693115234375
 10
12956.07727050781
 20
1646.746337890625
 10
13228.83679199219
 20
1611.78369140625
 10
13501.59631347656
 20
1544.85498046875
 10
13774.35583496094
 20
1455.94970703125
 10
14047.11535644531
 20
1365.04638671875
 10
14319.87487792969
 20
1233.186767578125
 10
14592.63439941406
 20
1131.29541015625
 10
14865.39392089844
 20
945.4931640625
 10
15138.15344238281
 20
745.7060546875
 10
15410.91296386719
 20
462.008056640625
 10
15683.67248535156
 20
292.18896484375
 10
15956.43200683594
 20
88.406005859375
 10
16229.19152832031
 20
54.442138671875
  0
LINE
  5
5C
100
AcDbEntity
  8
CENTERLINE
  6
DASHED
 62
  256
370
   -1
100
AcDbLine
 10
0
 20
0
 11
16365.5712890625
 21
0
  0
TEXT
  5
5D
100
AcDbEntity
  8
NOTES
  6
ByLayer
 62
  256
370
   -1
100
AcDbText
 10
0
 20
2500
 30
0
 40
50
  1
PLAN VIEW (half-breadth) — mirror about centerline for full beam
 50
0
 41
1
 51
0
  7
STANDARD
 71
    0
210
0
220
0
230
1
100
AcDbText
  0
TEXT
  5
5E
100
AcDbEntity
  8
NOTES
  6
ByLayer
 62
  256
370
   -1
100
AcDbText
 10
0
 20
-150
 30
0
 40
60
  1
BOW
 50
0
 41
1
 51
0
  7
STANDARD
 71
    0
210
0
220
0
230
1
100
AcDbText
  0
TEXT
  5
5F
100
AcDbEntity
  8
NOTES
  6
ByLayer
 62
  256
370
   -1
100
AcDbText
 10
16065.5712890625
 20
-150
 30
0
 40
60
  1
STERN
 50
0
 41
1
 51
0
  7
STANDARD
 71
    0
210
0
220
0
230
1
100
AcDbText
  0
LWPOLYLINE
  5
60
100
AcDbEntity
  8
SHEER_PROFILE
  6
ByLayer
 62
  256
370
   -1
100
AcDbPolyline
 90
   60
 70
    0
 43
0
 10
136.3797607421875
 20
-1431.882934570312
 10
409.1392822265625
 20
-1566.739379882812
 10
681.8988037109375
 20
-1624.677612304688
 10
954.6583251953125
 20
-1649.651000976562
 10
1227.417846679688
 20
-1681.617065429688
 10
1500.177368164062
 20
-1688.609619140625
 10
1772.936889648438
 20
-1712.583984375
 10
2045.696411132812
 20
-1718.57763671875
 10
2318.455932617188
 20
-1721.574462890625
 10
2591.215454101562
 20
-1780.51171875
 10
2863.974975585938
 20
-1816.473388671875
 10
3136.734497070312
 20
-1799.491455078125
 10
3409.494018554688
 20
-1857.429809570312
 10
3682.253540039062
 20
-1872.413818359375
 10
3955.013061523438
 20
-1880.4052734375
 10
4227.772583007812
 20
-1889.395751953125
 10
4500.532104492188
 20
-1892.392578125
 10
4773.291625976562
 20
-1893.391479492188
 10
5046.051147460938
 20
-1904.379760742188
 10
5318.810668945312
 20
-1890.394653320312
 10
5591.570190429688
 20
-1906.377685546875
 10
5864.329711914062
 20
-1907.376586914062
 10
6137.089233398438
 20
-1917.365966796875
 10
6409.848754882812
 20
-1925.357421875
 10
6682.608276367188
 20
-1929.353149414062
 10
6955.367797851562
 20
-1922.360595703125
 10
7228.127319335938
 20
-1900.384033203125
 10
7500.886840820312
 20
-1911.372314453125
 10
7773.646362304688
 20
-1905.378662109375
 10
8046.405883789062
 20
-1902.381958007812
 10
8319.165405273438
 20
-1908.37548828125
 10
8591.924926757812
 20
-1897.38720703125
 10
8864.684448242188
 20
-1895.389404296875
 10
9137.443969726562
 20
-1900.384033203125
 10
9410.203491210938
 20
-1897.38720703125
 10
9682.963012695312
 20
-1905.378662109375
 10
9955.722534179688
 20
-1901.382934570312
 10
10228.48205566406
 20
-1909.37451171875
 10
10501.24157714844
 20
-1906.377685546875
 10
10774.00109863281
 20
-1909.37451171875
 10
11046.76062011719
 20
-1909.37451171875
 10
11319.52014160156
 20
-1918.364868164062
 10
11592.27966308594
 20
-1918.364868164062
 10
11865.03918457031
 20
-1913.370239257812
 10
12137.79870605469
 20
-1905.378662109375
 10
12410.55822753906
 20
-1907.376586914062
 10
12683.31774902344
 20
-1891.3935546875
 10
12956.07727050781
 20
-1885.400024414062
 10
13228.83679199219
 20
-1878.407470703125
 10
13501.59631347656
 20
-1853.43408203125
 10
13774.35583496094
 20
-1842.445678710938
 10
14047.11535644531
 20
-1826.462768554688
 10
14319.87487792969
 20
-1802.48828125
 10
14592.63439941406
 20
-1779.512817382812
 10
14865.39392089844
 20
-1762.530883789062
 10
15138.15344238281
 20
-1649.651000976562
 10
15410.91296386719
 20
-1688.609619140625
 10
15683.67248535156
 20
-1399.9169921875
 10
15956.43200683594
 20
-1396.920166015625
 10
16229.19152832031
 20
-1695.602172851562
  0
LWPOLYLINE
  5
61
100
AcDbEntity
  8
BASE_PROFILE
  6
ByLayer
 62
  256
370
   -1
100
AcDbPolyline
 90
   60
 70
    0
 43
0
 10
136.3797607421875
 20
-2328.927673339844
 10
409.1392822265625
 20
-3200
 10
681.8988037109375
 20
-3199.001098632812
 10
954.6583251953125
 20
-3196.004272460938
 10
1227.417846679688
 20
-3095.111694335938
 10
1500.177368164062
 20
-3098.108520507812
 10
1772.936889648438
 20
-3108.097900390625
 10
2045.696411132812
 20
-3107.098876953125
 10
2318.455932617188
 20
-3103.103149414062
 10
2591.215454101562
 20
-3124.080810546875
 10
2863.974975585938
 20
-3125.079833984375
 10
3136.734497070312
 20
-3135.069091796875
 10
3409.494018554688
 20
-3118.087280273438
 10
3682.253540039062
 20
-3111.0947265625
 10
3955.013061523438
 20
-3112.093627929688
 10
4227.772583007812
 20
-3120.085083007812
 10
4500.532104492188
 20
-3192.008544921875
 10
4773.291625976562
 20
-3121.083984375
 10
5046.051147460938
 20
-3118.087280273438
 10
5318.810668945312
 20
-3122.0830078125
 10
5591.570190429688
 20
-3128.07666015625
 10
5864.329711914062
 20
-3135.069091796875
 10
6137.089233398438
 20
-3130.074462890625
 10
6409.848754882812
 20
-3133.0712890625
 10
6682.608276367188
 20
-3132.072387695312
 10
6955.367797851562
 20
-3134.070190429688
 10
7228.127319335938
 20
-3130.074462890625
 10
7500.886840820312
 20
-3137.067016601562
 10
7773.646362304688
 20
-3138.06591796875
 10
8046.405883789062
 20
-3136.068115234375
 10
8319.165405273438
 20
-3136.068115234375
 10
8591.924926757812
 20
-3142.061645507812
 10
8864.684448242188
 20
-3136.068115234375
 10
9137.443969726562
 20
-3140.063842773438
 10
9410.203491210938
 20
-3140.063842773438
 10
9682.963012695312
 20
-3142.061645507812
 10
9955.722534179688
 20
-3143.060668945312
 10
10228.48205566406
 20
-3144.0595703125
 10
10501.24157714844
 20
-3145.058471679688
 10
10774.00109863281
 20
-3148.055297851562
 10
11046.76062011719
 20
-3147.056396484375
 10
11319.52014160156
 20
-3151.052124023438
 10
11592.27966308594
 20
-3154.048950195312
 10
11865.03918457031
 20
-3152.051025390625
 10
12137.79870605469
 20
-3171.030883789062
 10
12410.55822753906
 20
-3146.057495117188
 10
12683.31774902344
 20
-3145.058471679688
 10
12956.07727050781
 20
-3146.057495117188
 10
13228.83679199219
 20
-3147.056396484375
 10
13501.59631347656
 20
-3146.057495117188
 10
13774.35583496094
 20
-3143.060668945312
 10
14047.11535644531
 20
-3146.057495117188
 10
14319.87487792969
 20
-3131.073364257812
 10
14592.63439941406
 20
-3131.073364257812
 10
14865.39392089844
 20
-3133.0712890625
 10
15138.15344238281
 20
-3130.074462890625
 10
15410.91296386719
 20
-3123.081909179688
 10
15683.67248535156
 20
-3125.079833984375
 10
15956.43200683594
 20
-3116.08935546875
 10
16229.19152832031
 20
-2861.360595703125
  0
LINE
  5
62
100
AcDbEntity
  8
BASELINE
  6
DASHED
 62
  256
370
   -1
100
AcDbLine
 10
0
 20
-3200
 11
16365.5712890625
 21
-3200
  0
TEXT
  5
63
100
AcDbEntity
  8
NOTES
  6
ByLayer
 62
  256
370
   -1
100
AcDbText
 10
0
 20
-3500
 30
0
 40
50
  1
PROFILE VIEW (side) — SHEER_PROFILE = rail height, BASE_PROFILE = bottom/keel rocker, above baseline
 50
0
 41
1
 51
0
  7
STANDARD
 71
    0
210
0
220
0
230
1
100
AcDbText
  0
TEXT
  5
64
100
AcDbEntity
  8
NOTES
  6
ByLayer
 62
  256
370
   -1
100
AcDbText
 10
0
 20
-3700
 30
0
 40
60
  1
BOW
 50
0
 41
1
 51
0
  7
STANDARD
 71
    0
210
0
220
0
230
1
100
AcDbText
  0
TEXT
  5
65
100
AcDbEntity
  8
NOTES
  6
ByLayer
 62
  256
370
   -1
100
AcDbText
 10
16065.5712890625
 20
-3700
 30
0
 40
60
  1
STERN
 50
0
 41
1
 51
0
  7
STANDARD
 71
    0
210
0
220
0
230
1
100
AcDbText
  0
TEXT
  5
66
100
AcDbEntity
  8
NOTES
  6
ByLayer
 62
  256
370
   -1
100
AcDbText
 10
0
 20
-600
 30
0
 40
40
  1
Hull lines derived from Smithsonian 3D scan (photogrammetry). Units: mm, real scale. Raw/noisy — fair by hand before lofting.
 50
0
 41
1
 51
0
  7
STANDARD
 71
    0
210
0
220
0
230
1
100
AcDbText
  0
LINE
  5
67
100
AcDbEntity
  8
FAIR_TOP
  6
ByLayer
 62
  256
370
   -1
100
AcDbLine
 10
0
 20
0
 11
0
 21
19.61794053134735
  0
LINE
  5
68
100
AcDbEntity
  8
FAIR_TOP
  6
ByLayer
 62
  256
370
   -1
100
AcDbLine
 10
0
 20
19.61794053134735
 11
136.3797607421875
 21
96.397216796875
  0
LINE
  5
69
100
AcDbEntity
  8
FAIR_TOP
  6
ByLayer
 62
  256
370
   -1
100
AcDbLine
 10
136.3797607421875
 20
96.397216796875
 11
409.1392822265625
 21
152.337890625
  0
LINE
  5
6A
100
AcDbEntity
  8
CONSTRUCTION
  6
ByLayer
 62
  256
370
   -1
100
AcDbLine
 10
0
 20
19.61794053134735
 11
101.1109261509872
 21
19.61794053134735
  0
LINE
  5
6B
100
AcDbEntity
  8
CONSTRUCTION
  6
ByLayer
 62
  256
370
   -1
100
AcDbLine
 10
409.1392822265625
 20
152.337890625
 11
496.2686318082846
 21
152.337890625
  0
LINE
  5
6C
100
AcDbEntity
  8
CONSTRUCTION
  6
ByLayer
 62
  256
370
   -1
100
AcDbLine
 10
699.1694882963538
 20
152.337890625
 11
496.2686318082846
 21
152.337890625
  0
LINE
  5
6D
100
AcDbEntity
  8
CONSTRUCTION
  6
ByLayer
 62
  256
370
   -1
100
AcDbLine
 10
136.3797607421875
 20
96.397216796875
 11
1043.586550435909
 21
96.397216796875
  0
LINE
  5
6E
100
AcDbEntity
  8
FAIR_BOTTOM
  6
ByLayer
 62
  256
370
   -1
100
AcDbLine
 10
627.4146966705352
 20
19.61794053134735
 11
748.1286881914696
 21
96.397216796875
  0
LINE
  5
6F
100
AcDbEntity
  8
FAIR_BOTTOM
  6
ByLayer
 62
  256
370
   -1
100
AcDbLine
 10
748.1286881914696
 20
96.397216796875
 11
1025.321543412248
 21
152.337890625
  0
LINE
  5
70
100
AcDbEntity
  8
FAIR_BOTTOM
  6
ByLayer
 62
  256
370
   -1
100
AcDbLine
 10
16044.90584388141
 20
102.5152395770224
 11
16044.90584388141
 21
19.61794053134735
  0
SPLINE
  5
71
100
AcDbEntity
  8
FAIR_BOTTOM
  6
ByLayer
 62
  256
370
   -1
100
AcDbSpline
210
0
220
0
230
0
 70
    8
 71
    2
 72
   16
 73
   13
 74
    0
 42
1e-07
 43
1e-07
 40
0
 40
0
 40
0
 40
0.09090909090909091
 40
0.1818181818181818
 40
0.2727272727272727
 40
0.3636363636363636
 40
0.4545454545454545
 40
0.5454545454545454
 40
0.6363636363636364
 40
0.7272727272727273
 40
0.8181818181818182
 40
0.9090909090909091
 40
1
 40
1
 40
1
 10
1025.321543412248
 20
152.337890625
 30
0
 10
1126.155514475307
 20
379.4900755407662
 30
0
 10
1626.918007163045
 20
751.2079915026171
 30
0
 10
2615.345084955508
 20
1189.850307689488
 30
0
 10
3748.552016702642
 20
1523.817318704443
 30
0
 10
5170.019092815436
 20
1692.972353491287
 30
0
 10
7982.117986474907
 20
1829.3252181146
 30
0
 10
10809.9368503183
 20
1879.265636765409
 30
0
 10
12401.41591405595
 20
1763.597224646977
 30
0
 10
13508.35715190555
 20
1569.710784890798
 30
0
 10
14675.94914821429
 20
1145.957279123143
 30
0
 10
15509.09207058187
 20
416.966214697671
 30
0
 10
15869.28250153222
 20
151.8980359526404
 30
0
  0
SPLINE
  5
72
100
AcDbEntity
  8
FAIR_TOP
  6
ByLayer
 62
  256
370
   -1
100
AcDbSpline
210
0
220
0
230
0
 70
    8
 71
    2
 72
   13
 73
   10
 74
    0
 42
1e-07
 43
1e-07
 40
0
 40
0
 40
0
 40
0.125
 40
0.25
 40
0.375
 40
0.5
 40
0.625
 40
0.75
 40
0.875
 40
1
 40
1
 40
1
 10
409.1392822265625
 20
152.337890625
 30
0
 10
741.888370851009
 20
538.3236610705227
 30
0
 10
1795.005078606948
 20
1267.579019533374
 30
0
 10
3372.535697081119
 20
1899.260726685432
 30
0
 10
5606.175059200089
 20
2180.637648652844
 30
0
 10
8527.784353990262
 20
2319.679521326254
 30
0
 10
10966.27187594442
 20
2300.129740217103
 30
0
 10
13016.63744722229
 20
2182.704390096047
 30
0
 10
15298.37350843315
 20
1335.813166529923
 30
0
 10
16262.64482380969
 20
152.337890625
 30
0
  0
LINE
  5
73
100
AcDbEntity
  8
FAIR_BOTTOM
  6
ByLayer
 62
  256
370
   -1
100
AcDbLine
 10
15869.28250153222
 20
151.8980359526404
 11
16044.90584388141
 21
102.5152395770224
  0
LINE
  5
74
100
AcDbEntity
  8
FAIR_TOP
  6
ByLayer
 62
  256
370
   -1
100
AcDbLine
 10
16262.64482380969
 20
152.337890625
 11
16396.58552364845
 21
102.5483255048034
  0
LINE
  5
75
100
AcDbEntity
  8
FAIR_TOP
  6
ByLayer
 62
  256
370
   -1
100
AcDbLine
 10
16396.58552364845
 20
102.5483255048034
 11
16396.58552364845
 21
19.61794053134735
  0
LINE
  5
76
100
AcDbEntity
  8
FAIR_BASE_PROFILE
  6
ByLayer
 62
  256
370
   -1
100
AcDbLine
 10
142.6466145487543
 20
-2348.941210892695
 11
382.8642044604677
 21
-3116.089113962609
  0
LINE
  5
77
100
AcDbEntity
  8
FAIR_BASE_PROFILE
  6
ByLayer
 62
  256
370
   -1
100
AcDbLine
 10
382.8642044604677
 20
-3116.089113962609
 11
15956.43200683594
 21
-3116.089113962609
  0
SPLINE
  5
78
100
AcDbEntity
  8
FAIR_SHEER_PROFILE
  6
ByLayer
 62
  256
370
   -1
100
AcDbSpline
210
0
220
0
230
0
 70
    8
 71
    2
 72
    9
 73
    6
 74
    0
 42
1e-07
 43
1e-07
 40
0
 40
0
 40
0
 40
0.25
 40
0.5
 40
0.75
 40
1
 40
1
 40
1
 10
136.3797607421875
 20
-1431.882934570312
 30
0
 10
2953.371371388959
 20
-1926.052889095136
 30
0
 10
7706.084392009154
 20
-1894.738893710795
 30
0
 10
11496.47847048669
 20
-1951.748232187491
 30
0
 10
14747.8474857759
 20
-1764.95943534212
 30
0
 10
16229.19152832031
 20
-1695.602172851562
 30
0
  0
ENDSEC
  0
SECTION
  2
OBJECTS
  0
DICTIONARY
  5
C
330
0
100
AcDbDictionary
281
    1
  3
ACAD_GROUP
350
D
  0
DICTIONARY
  5
D
330
C
100
AcDbDictionary
281
    1
  0
PLOTSETTINGS
  5
79
100
AcDbPlotSettings
  6
1x1
 40
0
 41
0
 42
0
 43
0
  0
ENDSEC
  0
EOF
